<?xml version="1.0" encoding="utf-8"?>
<!-- Generator: Adobe Illustrator 19.0.0, SVG Export Plug-In . SVG Version: 6.00 Build 0)  -->
<svg version="1.1" id="Layer_1" xmlns="http://www.w3.org/2000/svg" xmlns:xlink="http://www.w3.org/1999/xlink" x="0px" y="0px"
	 viewBox="0 0 11.6 11.6" style="enable-background:new 0 0 11.6 11.6;" xml:space="preserve">
<style type="text/css">
	.st0{fill-rule:evenodd;clip-rule:evenodd;fill:#fff;}
</style>
<g id="XMLID_13_">
	<g id="XMLID_52_">
		<path id="XMLID_53_" class="st0" d="M11.6,5.6c0,3.1-2.6,5.6-5.7,5.6c-1,0-1.9-0.3-2.7-0.7l-3.1,1l1-3C0.5,7.7,0.2,6.7,0.2,5.6
			C0.2,2.5,2.8,0,5.9,0C9,0,11.6,2.5,11.6,5.6L11.6,5.6z M5.9,0.9C3.3,0.9,1.1,3,1.1,5.6c0,1,0.3,2,0.9,2.8l-0.6,1.8l1.8-0.6
			c0.8,0.5,1.7,0.8,2.6,0.8c2.6,0,4.8-2.1,4.8-4.7C10.7,3,8.5,0.9,5.9,0.9L5.9,0.9z M8.8,6.9c0-0.1-0.1-0.1-0.3-0.2
			c-0.1-0.1-0.8-0.4-1-0.5c-0.1,0-0.2-0.1-0.3,0.1C7.1,6.5,6.9,6.8,6.8,6.9C6.7,7,6.6,7,6.5,7C6.4,6.9,5.9,6.8,5.4,6.3
			C5,5.9,4.7,5.5,4.6,5.3C4.5,5.2,4.6,5.1,4.7,5C4.7,5,4.8,4.9,4.9,4.8C4.9,4.7,5,4.7,5,4.6c0-0.1,0-0.2,0-0.2c0-0.1-0.3-0.7-0.4-1
			C4.5,3,4.3,3.1,4.3,3.1c-0.1,0-0.2,0-0.3,0c-0.1,0-0.2,0-0.4,0.2C3.5,3.4,3.1,3.7,3.1,4.4c0,0.7,0.5,1.3,0.6,1.4
			c0.1,0.1,1,1.5,2.4,2.1c1.4,0.6,1.4,0.4,1.7,0.3c0.3,0,0.8-0.3,0.9-0.7C8.8,7.3,8.8,7,8.8,6.9L8.8,6.9z M8.8,6.9"/>
	</g>
</g>
</svg>
